<svg width="778" height="464" viewBox="0 0 778 464" fill="none" xmlns="http://www.w3.org/2000/svg">
<path d="M335.295 28.212C362.551 41.4214 369.046 61.0529 387.658 86.2878C396.785 103.18 392.455 119.424 387.658 146.299C381.725 171.661 377.966 178.601 371.367 192.76C364.714 205.56 358.29 212.78 345.768 225.67C318.39 232.283 315.73 236.136 317.841 243.092C333.557 255.754 334.188 261.5 337.623 272.13C340.561 288.345 339.119 293.901 337.623 305.04C334.704 317.113 332.281 321.208 328.314 326.334L300.387 312.783C287.947 307.194 281.05 305.783 268.97 308.912C257.243 312.667 251.548 316.876 242.207 326.334C223.678 346.888 224.934 355.001 222.425 370.859C217.46 382.303 204.654 374.95 170.063 345.693C146.682 329.784 132.764 318.769 107.228 297.297C75.2957 275.939 62.9039 256.847 38.5751 225.67C20.1703 202.95 12.5502 187.888 2.50323 157.915C-0.937498 143.133 -1.72799 134.761 5.99406 119.197C16.2387 90.8076 23.5538 91.9594 36.2479 90.1595C46.3347 90.0879 51.4745 94.414 60.6837 101.775C75.6327 110.852 82.2182 108.616 93.2647 101.775C110.943 92.5729 119.467 85.9253 131.664 70.8009C142.907 50.8272 150.024 40.3539 170.063 28.212C188.605 14.0613 201.977 10.0613 225.916 3.04584C249.592 -2.81143 258.811 1.26496 278.279 3.04584C304.235 8.48685 314.518 16.6152 335.295 28.212Z" fill="#DDC970"/>
<path d="M424.729 352.646C438.561 356.408 449.837 353.085 455.289 369.781V371.495C455.289 371.495 455.289 376.635 463.884 378.92C472.479 381.204 469.272 385.596 461.974 386.916C455.51 388.085 463.884 400.624 463.884 404.051C463.884 406.792 466.749 425.183 481.074 425.755C495.399 426.326 533.522 394.389 534.555 413.189C530.167 421.369 524.889 426.587 540.285 430.324C560.439 443.993 571.443 453.471 594.72 448.03C612.699 434.089 623.129 430.702 642.47 434.322C697.771 458.833 727.347 471.055 746.566 457.168C772.465 442.638 746.566 417.758 759.936 385.202C773.306 352.646 778.542 359.916 777.126 343.508C764.542 325.492 756.602 315.164 759.936 301.242C760.994 281.929 768.578 270.489 752.296 252.693C730.869 231.071 717.447 217.48 712.186 212.712C700.693 202.939 695.292 199.553 686.401 195.006L686.248 194.931C681.897 192.781 679.413 191.553 665.391 189.295C649.183 187.447 640.749 187.218 629.1 191.008C613.037 196.832 606.713 200.876 597.585 208.714C586.052 217.631 580.434 223.062 580.395 237.843C572.349 251.818 562.302 255.819 540.285 260.118C520.594 259.319 510.305 260.358 493.489 265.259C476.777 269.294 466.969 272.052 455.289 270.399C442.073 270.286 435.266 272.381 424.729 281.823C420.67 285.059 419.564 287.863 418.044 293.246C416.018 297.68 418.017 300.334 424.729 305.24C426.448 308.091 425.26 309.443 415.179 310.952C411.314 317.947 409.83 322.115 409.449 330.371C409.385 339.182 407.408 344.157 424.729 352.646Z" fill="#463011" stroke="#463011"/>
<path d="M624.325 254.407C633.165 255.526 637.553 256.749 645.335 258.976C647.679 260.983 647.942 262.109 645.335 264.116C642.048 265.826 639.736 266.704 634.83 268.114C627.695 269.417 622.069 271.776 611.91 276.111C608.181 278.168 604.649 279.705 598.54 282.393C593.732 283.802 589.457 285.209 582.305 287.534C577.184 288.316 570.939 290.227 559.384 293.817C551.415 296.553 547.093 297.547 539.329 299.528C529.111 300.589 525.76 300.793 519.274 301.242C513.862 301.2 510.091 301.2 502.084 301.242C496.79 300.912 493.732 300.628 487.759 299.528C487.759 299.528 479.164 299.528 477.254 297.815C475.344 296.101 479.164 295.53 479.164 295.53H489.669C494.431 294.776 497.356 295.066 501.129 291.532C500.917 289.998 523.79 287.075 530.734 287.534C537.678 287.993 545.846 283.591 552.699 282.393C561.504 280.045 566.021 278.188 573.71 274.397C579.294 271.83 581.962 269.761 586.125 265.259C593.798 258.848 597.028 258.675 603.315 256.691C610.274 253.872 615.476 254.302 624.325 254.407Z" fill="#DDC970"/>
<path d="M464.84 306.954C468.306 306.125 470.57 306.095 475.345 306.954C470.581 306.656 487.484 308.974 495.4 314.95C496.558 315.824 495.4 317.806 495.4 317.806C489.775 318.853 486.965 318.548 482.03 317.806C474.665 316.022 470.611 314.778 463.885 310.952C462.503 308.692 463.103 307.972 464.84 306.954Z" fill="#DDC970"/>
<path d="M612.865 299.528C618.585 299.725 621.507 300.078 626.235 301.242C626.193 302.809 625.619 303.857 622.415 306.382C619.598 307.566 617.673 307.951 612.865 307.524C608.511 305.246 605.721 304.947 600.45 305.24C592.803 306.553 590.046 309.304 586.125 315.521C584.674 316.681 584.324 317.388 586.125 318.948C587.246 320.424 586.022 321.293 578.485 322.946L559.385 330.942C549.2 333.681 543.272 335.057 530.735 336.082C523.882 336.208 520.142 335.543 513.544 333.798C507.404 332.247 505.265 330.792 503.994 326.944L507.814 318.376L517.364 310.951L536.465 305.24L552.7 300.099L569.89 297.244C579.252 296.918 584.652 296.982 594.72 297.815C602.496 299.697 606.405 299.961 612.865 299.528Z" fill="#DDC970"/>
<path d="M565.115 333.226C567.752 332.303 569.461 332.403 572.755 333.226C575.109 333.767 575.066 334.614 570.845 337.796C567.784 339.307 566.132 339.637 563.205 340.08C561.451 339.847 560.402 339.986 558.43 340.652C555.897 342.142 554.69 343.19 552.7 345.221C549.338 346.213 547.751 345.991 545.06 345.221C541.852 344.464 541.367 343.936 541.24 342.936C543.443 341.312 544.963 340.755 547.925 340.08L557.475 335.511L565.115 333.226Z" fill="#DDC970"/>
<path d="M565.115 333.226C567.752 332.303 569.461 332.403 572.755 333.226C575.109 333.767 575.066 334.614 570.845 337.796C567.784 339.307 566.132 339.637 563.205 340.08C561.451 339.847 560.402 339.986 558.43 340.652C555.897 342.142 554.69 343.19 552.7 345.221C549.338 346.213 547.751 345.991 545.06 345.221C541.852 344.464 541.367 343.936 541.24 342.936C543.443 341.312 544.963 340.755 547.925 340.08L557.475 335.511L565.115 333.226Z" fill="#DDC970"/>
<path d="M519.275 316.233C522.838 314.235 524.366 312.86 533.6 313.948L537.42 316.233C541.692 317.299 543.245 316.712 546.015 315.662L555.565 313.377C560.011 312.477 562.533 311.99 565.115 309.95C565.115 309.95 567.98 307.666 569.89 307.094C571.8 306.523 577.345 305.42 577.53 305.952C579.894 306.304 580.767 306.898 581.35 308.808C577.305 313.26 575.085 315.931 569.89 316.233C566.757 315.41 563.104 316.097 554.61 318.518C551.197 321.526 549.267 323.137 545.06 322.516C539.998 321.557 536.824 321.379 529.78 322.516C524.781 322.647 522.033 322.319 517.365 320.231L519.275 316.233Z" fill="#463011"/>
<path d="M350.351 276.5C347.856 261.054 345.274 255.358 340.351 246C337.952 239.663 330.901 241.958 325.351 240.5C315.242 238.237 329.288 232.242 350.351 229.5C360 227.895 364.095 224.966 367.351 213.5C370.483 205.214 373.606 196.516 380.851 195.5C391.678 194.12 397.443 193.33 406.851 195.5C415.336 197.849 424.316 200.954 440.325 206.491L440.351 206.5C453.923 214.853 454.297 223.039 458.351 236C460.683 251.833 455.008 254.394 449.351 263C445.374 267.75 437.512 268.775 424.851 271C412.369 273.737 412.56 282.734 406.851 292.5C408.469 295.047 421.597 303.513 419.851 305.5C418.104 307.487 417.575 310.066 411.851 307C406.495 303.951 404.568 313.461 400.851 327.5C399.482 337.664 402.517 340.552 406.851 346.5C425.385 357.997 400.942 358.07 380.851 362.5C363.999 360.501 359.075 355.49 350.351 346.5C343.811 338.703 341.021 334.457 340.351 327.5C341.377 319.557 342.638 315.088 350.351 307C353.916 294.238 353.837 287.581 350.351 276.5Z" fill="#B9AE84"/>
</svg>
