<svg width="741" height="612" viewBox="0 0 741 612" fill="none" xmlns="http://www.w3.org/2000/svg">
<path d="M375.993 46.3964C381.891 43.1915 433.339 19.4833 436.84 23.8819C440.07 30.2702 444.83 39.7622 443.621 49.9594C438.64 65.6626 417.436 87.92 418.191 97.9969C417.446 112 394.674 122.253 380.894 134.368C369.003 142.507 345.6 144.598 330.219 150.706C317.051 157.065 270.882 165.118 270.882 165.118C252.585 167.599 231.89 177.47 231.89 186.391C231.89 195.313 264.764 185.019 264.764 195.313C264.764 205.606 241.214 228.939 238.671 233.056C236.128 237.174 247.995 235.115 245.452 239.919C242.909 244.723 236.128 244.723 236.128 244.723C225.805 247.834 230.4 257.77 236.128 273.545C250.092 300.192 127.257 299.336 57.2708 275.604C49.7062 271.873 50.8012 265.61 57.2708 250.899C64.4192 237.101 73.5439 233.935 92.025 224.135C105.956 218.127 115.077 214.823 133.561 209.038C143.02 207.488 149.674 204.558 162.381 198.058C171.356 194.315 174.532 195.289 176.792 202.861C190.744 204.279 193.099 201.664 194.592 195.313L208.155 158.255C216.297 139.499 222.791 130.838 236.128 117.08C249.963 104.571 259.859 98.3645 281.902 88.9438C285.642 86.8194 296.036 83.6578 323.438 75.9051C331.914 73.2056 344.182 65.4306 360.735 56.0039C367.703 50.7448 370.8 49.0025 375.993 46.3964Z" fill="#463011"/>
<path d="M203.952 246.616L218.52 237.105L230.174 224.422C238.09 218.143 243.398 212.902 247.656 213.854C262.681 206.231 263.874 231.892 272.907 246.616C279.809 251.84 280.673 264.977 284.562 280.435C285.188 287.066 281.16 289.12 274.85 293.117V307.913L268.051 347.016L275.821 392.46C284.118 413.628 287.183 433.607 298.158 441.075C308.469 455.056 317.979 464.662 313.698 471.724C307.723 473.929 305.725 475.416 307.87 479.122L307.987 479.34C317.9 497.872 323.494 508.33 317.582 511.884C306.346 515.348 302.164 517.562 302.043 522.452C300.772 527.387 298.831 529.879 294.274 534.077L280.677 542.532L248.627 568.953C236 581.507 223.562 581.012 203.952 583.749C192.127 585.748 185.849 584.012 172.874 595.374C165.337 603.552 159.781 606.213 148.594 609.113C129.898 612.272 117.759 612.237 93.2352 609.113C80.2095 607.142 73.3832 605.239 65.0704 595.374C54.3845 585.31 49.2634 579.555 42.7328 568.953C39.0063 561.656 36.8167 558.204 27.1936 542.532C14.9121 516.663 1.78684 498.006 0 479.122C0.425211 466.329 -1.72285 455.433 5.8272 453.757C14.0368 454.59 19.2844 456.302 21.3664 445.303C22.168 429.054 23.6777 424.509 27.1936 419.938C31.7718 403.469 30.2845 389.85 42.7328 381.892C53.8945 375.696 60.4946 372.221 60.2144 366.039C57.77 350.729 53.2969 342.617 60.2144 325.879C70.7158 308.816 74.9804 297.475 93.2352 288.89C116.608 272.585 130.321 261.797 148.594 259.298C158.604 255.143 163.397 252.544 168.018 246.616C169.543 241.23 171.603 238.969 178.701 237.105C183.608 237.703 185.82 239.548 188.413 246.616C195.381 252.708 198.366 249.884 203.952 246.616Z" fill="#463011"/>
<path d="M145.68 471.396C153.565 468.981 157.787 467.83 164.133 467.168C166.788 466.894 168.276 466.908 170.931 467.168C177.983 466.226 182.043 466.032 188.413 462.941C196.496 461.284 200.712 459.291 208.808 458.714C214.632 457.098 217.803 456.903 225.318 454.486C231.105 453.707 234.324 452.294 238.915 452.373C244.814 453.789 248.314 454.465 249.598 458.714C252.074 463.235 253.671 465.703 252.512 471.396C249.967 479.016 249.939 485.351 242.8 486.191C238.06 484.124 235.77 483.538 234.059 486.191C232.658 491.373 230.915 493.158 227.261 495.703C218.832 495.75 213.791 495.788 208.808 495.703L208.309 495.806C202.007 497.11 197.581 498.025 188.413 499.93C182.25 501.564 178.482 503.069 170.931 507.328C163.665 508.759 159.173 509.507 148.594 510.499C141.767 512.198 137.939 511.778 131.112 510.499C125.902 509.828 122.893 509.12 116.544 504.158C113.865 502.555 112.756 500.803 111.688 495.703C112.043 491.569 112.653 489.363 116.544 486.191C121.524 482.326 124.578 480.519 131.112 478.794C136.888 476.064 140.094 474.475 145.68 471.396Z" fill="#DDC970"/>
<path d="M143.738 410.099C141.628 405.88 145.812 405.099 153.45 403.758C157.679 403.367 159.588 406.183 163.162 410.099C166.545 410.313 167.927 408.534 169.96 403.758L171.903 397.417L176.759 386.848C179.135 382.561 181.008 380.888 185.499 379.45C194.739 377.302 199.648 377.227 207.837 379.45C214.868 383.06 220.412 387.178 221.434 391.076C222.455 394.973 223.29 398.264 221.434 400.587C220.455 401.407 220.836 408.146 221.434 419.61C221.937 431.121 205.944 434.245 192.298 442.861C189.934 444.98 186.641 443.863 181.615 442.861C179.151 442.488 177.612 442.041 173.845 439.69C168.336 437.986 157.78 425.257 143.738 410.099Z" fill="#DDC970"/>
<path d="M182.586 360.427C184.166 358.724 186.431 359.384 190.355 360.427C195.06 361.168 199.32 358.829 202.981 361.484C203.912 363.098 202.55 364.036 200.067 365.711C196.918 367.657 194.394 367.427 190.355 367.825C185.906 367.974 185.202 366.825 182.586 365.711C181.884 363.476 181.947 362.335 182.586 360.427Z" fill="#DDC970"/>
<path d="M241.863 422.012C239.835 421.02 239.587 418.482 239.071 414.122C238.015 409.079 234.478 405.593 235.439 400.921C236.488 399.396 237.783 400.442 240.111 402.361C242.912 404.859 243.622 407.505 245.415 411.463C247.142 415.927 246.409 417.056 246.395 420.112C244.73 421.629 243.728 421.975 241.863 422.012Z" fill="#DDC970"/>
<path d="M180.73 421.697C175.347 422.433 171.779 423.332 169.075 421.697C168.841 421.083 169.057 420.649 170.047 419.583C172.264 415.247 173.734 412.989 177.816 410.072C180.167 408.419 181.73 408.159 184.615 407.958C189.692 408.644 194.309 405.33 203.067 407.958C206.796 408.641 209.994 410.366 211.808 414.299C212.194 415.538 212.116 416.232 211.808 417.47C208.007 420.872 204.906 419.946 200.156 418.527L200.154 418.527C199.855 416.455 199.954 415.05 198.211 414.299C194.413 413.079 192.784 413.983 189.471 414.299C185.46 416.513 184.545 420.617 180.73 421.697Z" fill="#463011"/>
<path d="M427.435 72.2096C436.457 54.9546 440.127 44.6343 439.906 23.0773L569.074 0L595.798 29.7772C637.324 133.724 519.653 252.863 516.516 253.85C513.378 254.837 492.563 247.464 473.757 225.562C459.504 213.833 450.18 207.999 427.435 200.996C408.671 194.122 399.277 189.787 371.314 186.852C346.598 185.293 333.425 182.851 306.285 186.852C290.96 187.548 276.825 196.025 255.509 205.462C240.88 208.377 232.542 210.569 219.876 205.462C212.854 198.527 205.346 194.973 210.968 186.852C218.327 180.721 221.322 177.263 233.238 171.219C255.199 162.785 269.226 155.537 284.905 156.33C322.689 149.079 343.546 145 360.624 136.975C379.037 128.913 390.62 125.943 403.383 110.92C411.278 95.029 415.755 86.1456 427.435 72.2096Z" fill="#DDC970"/>
<path d="M514.997 255.508C536.694 259.835 559.208 261.23 581.254 259.614C603.3 257.997 624.447 253.4 643.486 246.085C662.526 238.77 679.086 228.881 692.22 216.982C705.354 205.083 714.806 191.407 720.035 176.735C725.264 162.063 726.169 146.682 722.697 131.471C719.226 116.26 711.446 101.516 699.802 88.0812C688.158 74.6466 672.877 62.7842 654.834 53.1714C636.79 43.5586 616.336 36.3837 594.639 32.0562L554.818 143.782L514.997 255.508Z" fill="#DDC970"/>
</svg>
