<svg width="708" height="517" viewBox="0 0 708 517" fill="none" xmlns="http://www.w3.org/2000/svg">
<path d="M325.651 18.9627C314.114 25.8503 306.792 25.307 292.678 18.9627L261.023 7.81773C250.988 5.56311 244.611 5.50299 232.007 7.81773C223.547 10.875 219.07 13.831 212.223 24.5352C206.788 33.3579 205.773 39.4796 212.223 55.184C216.933 64.5656 219.538 69.5355 224.093 77.474C238.273 105.588 249.89 117.406 274.213 134.592L308.505 149.916C324.56 162.383 324.95 168.881 325.638 180.347L325.651 180.565C325.828 198.05 323.08 202.886 312.462 201.462C262.961 192.077 242.286 190.033 238.601 201.462C220.74 227.231 209.232 234.677 185.844 234.897C165.09 232.474 155.217 235.393 141 248.828C141.537 265.396 145.129 272.168 168.698 271.118C216.607 266.831 242.801 258.809 292.678 271.118C310.134 276.948 319.485 279.799 334.884 283.656C349.292 284.905 358.427 288.239 370.495 283.656C406.107 253.665 429.097 233.173 444.356 227.931C451.199 222.332 476.814 223.6 532.725 227.931C542.182 224.763 547.571 222.375 557.784 214C561.969 209.211 563.76 206.474 565.698 201.462C567.764 191.125 569.632 185.33 565.698 174.993C559.36 159.134 540.39 154.297 516.897 142.951C511.905 136.399 510.435 133.639 510.303 130.413C509.217 123.053 508.464 118.912 514.26 112.302C528.232 102.639 534.165 98.4368 535.363 96.9777C539.871 93.9328 540.826 91.829 539.319 87.2259C541.889 84.2438 518.18 57.8753 514.26 55.184C510.34 52.4927 479.201 28.0369 454.907 18.9627C429.957 10.4202 406.831 0.836315 398.193 0.852101C380.374 -0.279958 374.185 -0.288101 370.495 0.852101C351.273 2.5131 342.049 8.36158 325.651 18.9627Z" fill="#DDC970"/>
<path d="M195.416 82.5331C207.204 74.7093 214.478 72.9782 230.59 82.5331C235.788 85.7712 239.576 92.6737 246.419 105.469C251.563 119.604 260.018 121.193 272.8 126.64C298.605 137.284 297.594 140.204 307.975 147.811C331.603 169.272 334.369 171.004 346.668 181.332C360.116 194.822 354.186 201.172 350.185 213.089C348.345 221.798 339.688 226.206 327.321 234.261C311.603 240.036 297.928 233.398 276.318 227.203C265.228 220.562 258.478 220.978 246.419 221.911C238.296 223.306 231.494 226.777 218.279 234.261C207.614 238.913 202.451 248.375 184.863 264.253C167.276 280.132 103.961 283.66 103.961 283.66C72.6278 287.591 58.2454 285.85 31.8524 283.66C11.2768 277.032 7.68204 271.853 1.95375 262.489C-8.00206 246.045 21.5118 248.839 58.2336 248.375C83.6618 246.643 96.7269 232.976 119.79 206.032C142.465 172.73 156.891 143.959 181.346 100.176C187.487 91.3404 190.869 86.5675 195.416 82.5331Z" fill="#463011"/>
<path d="M476.602 242.896C497.05 224.539 492.643 220.556 489.558 222.274L502.514 213.681C502.514 213.681 521.947 211.963 515.47 203.37C508.992 194.778 515.47 182.748 515.47 182.748C521.121 172.669 525.995 170.041 536.754 169H560.815C568.835 173.869 595.981 197.184 640.4 251.489C652.246 265.237 645.336 274.975 640.4 278.126C627.459 292.097 620.966 315.547 665.387 325.385C689.818 336.384 679.885 336.269 671.864 334.837L704.254 353.741C712.279 373.288 709.924 397.262 671.864 400.141C651.505 400.141 639.475 407.874 602.458 431.074C572.845 449.634 562.357 474.323 560.815 484.348C546.625 492.368 509.185 516.465 495.11 504.97C490.82 501.467 483.717 511.385 476.602 517L457.168 508.407C446.372 508.121 419.226 502.908 397.017 484.348C374.807 465.788 374.807 464.585 377.583 466.304C375.424 462.58 372.401 454.618 377.583 452.556C382.765 450.493 379.742 446.541 377.583 444.822C371.722 436.802 360 416.639 360 400.141C360 383.643 386.837 394.985 377.583 386.393C368.329 377.8 371.105 361.474 371.105 361.474C371.105 361.474 382.827 352.022 386.837 353.741C390.23 347.439 400.533 332.947 414.599 325.385C428.666 317.824 435.884 313.069 437.735 311.637L444.213 294.452C444.209 284.461 455.268 262.05 476.602 242.896Z" fill="#DDC970"/>
<path d="M456.637 336.937V327.486C460.412 325.512 463.211 330.009 464.966 327.486C466.72 324.962 474.144 317.187 475.145 318.893C480.125 315.333 481.974 313.942 484.399 312.019C490.15 308.634 493.323 306.689 497.355 301.708C501.387 296.727 501.76 294.935 504.758 292.256L512.162 282.804L523.267 275.93L534.371 272.493C534.371 272.493 538.998 271.634 544.551 272.493C550.103 273.352 553.22 274.589 554.731 275.93C556.007 280.061 556.196 282.472 554.731 287.1L545.477 297.411C539.916 303.909 536.459 307.086 529.745 312.019L512.162 327.486L493.653 341.234C486.604 344.424 482.543 346.516 475.145 350.686C468.291 357.081 464.095 359.699 456.637 364.434L442.756 372.167C439.162 373.172 436.947 372.871 432.576 370.449C429.917 367.431 429.267 365.527 432.576 360.997C435.767 357.387 437.43 355.188 439.979 350.686C440.848 346.84 442.564 344.798 446.457 341.234L456.637 336.937Z" fill="#463011"/>
<path d="M422.928 396.704L425.704 395.844L428.481 396.704L430.332 397.563L433.108 399.282H436.809L439.586 401L440.511 404.437L439.586 408.733L438.66 410.452L434.959 413.03H429.406H425.704L422.003 410.452L419.227 407.015V404.437V401L422.003 399.282L422.928 396.704Z" fill="#463011"/>
<path d="M494.185 356.318L504.365 353.741C508.116 352.233 509.493 352.16 512.693 352.022C515.894 351.884 522.326 353.512 521.948 353.741C521.948 353.741 529.381 356.206 531.78 357.028C531.8 356.745 544.157 358.896 544.157 358.896C548.228 360.539 548.842 362.079 549.71 364.911C549.207 368.741 547.76 369.854 544.157 370.926H533.978C530.334 371.025 528.293 371.137 524.724 373.504C522.552 377.177 522.375 379.253 521.948 382.956C520.175 386.551 518.493 387.8 514.544 388.97C513.358 392.433 514.024 394.066 516.395 396.704C517.501 399.218 517.475 400.57 514.544 402.718L502.514 411.311L492.334 418.185C485.614 422.761 481.925 424.623 475.677 425.059H466.423H456.243H452.541C450.011 424.282 449.739 423.132 449.765 420.763L449.771 420.703C449.919 419.235 450.004 418.393 449.765 416.467C450.328 412.922 450.779 411.071 452.541 408.733C453.16 406.18 453.144 404.868 452.541 402.718C453.715 397.794 454.584 397.033 456.243 396.704L460.87 388.97C463.025 385.822 464.238 384.463 466.423 382.956C469.223 379.242 471.097 377.168 475.677 373.504C479.983 370.207 481.607 368.315 484.006 364.911C486.724 360.352 488.876 358.394 494.185 356.318Z" fill="#463011"/>
<path d="M484.931 385.533C484.931 385.533 484.005 386.393 484.931 387.252C485.856 388.111 487.707 387.252 487.707 387.252L489.558 385.533L492.334 384.674L494.185 382.096L496.961 380.378C497.868 378.948 498.319 378.389 498.812 378.659C500.69 377.93 501.244 377.558 501.588 376.941C502.051 375.828 502.446 375.083 503.439 373.504C504.455 372.434 505.078 371.884 506.215 370.926C508.877 369.095 509.565 368.391 509.917 367.489C510.227 366.413 511.082 365.87 512.693 364.911C515.223 364.219 516.642 364.143 519.171 364.911C519.519 366.299 519.56 367.205 519.171 369.207C518.983 371.116 518.219 371.771 516.395 372.645C514.32 373.468 513.569 374.489 512.693 376.941C512.342 378.582 511.922 379.514 509.917 381.237C508.048 381.86 507.009 382.314 505.29 384.674C504.538 386.562 503.801 387.374 501.588 388.111C500.656 388.332 500.077 388.624 498.812 389.83C496.445 391.701 495.007 392.158 492.334 392.407C490.624 392.797 489.808 393.08 489.558 394.126C489.163 395.346 488.407 395.604 486.782 395.845C484.36 395.084 483.244 394.957 482.155 395.845C480.716 396.578 479.907 396.863 478.453 396.704C475.335 395.506 473.989 395.201 472.9 395.845C470.959 395.64 469.981 395.422 469.199 394.126C468.872 393.119 468.751 392.555 469.199 391.548C472.755 390.817 473.362 390.447 472.9 389.83C472.088 389.249 471.795 388.905 472.9 388.111C475.171 388.502 476.263 388.438 477.528 387.252C476.637 386.8 476.756 386.41 477.528 385.533C480.22 384.328 481.788 384.008 484.931 385.533Z" fill="#DDC970"/>
<path d="M505.29 423.341C506.39 420.722 506.318 419.844 505.29 419.044C503.923 418.245 502.852 418.352 500.663 419.044L496.036 420.763C493.829 421.905 492.604 422.501 490.483 423.341C487.753 424.11 486.462 425.227 484.005 426.778C481.784 429.241 480.55 430.468 478.453 431.074C476.946 431.101 476.108 431.197 474.751 432.792C474.751 432.792 474.751 433.652 475.677 433.652C476.602 433.652 475.721 434.178 475.677 434.511C475.519 435.696 477.207 436.457 477.527 436.229C479.208 436.264 480.033 436.073 481.229 435.37C483.925 433.679 485.336 432.942 487.707 431.933C490.671 430.974 492.227 430.344 494.185 428.496C497.487 426.768 499.287 426.027 502.514 425.059C504.662 424.464 504.959 424.066 505.29 423.341Z" fill="#463011"/>
</svg>
