<svg width="436" height="528" viewBox="0 0 436 528" fill="none" xmlns="http://www.w3.org/2000/svg">
<path d="M197.5 62.5C185.151 52.5898 176.282 48.9456 156.5 46C111.387 60.2539 91.5004 116 92.0004 120.5C92.5004 125 118.37 146.749 129.5 165C139.723 182.175 142.904 191.116 146.5 206.5C161.718 207.522 169.882 207.445 184 206.5C198.278 201.211 205.498 197.045 216 186C231.787 173.728 235.565 164.594 240.5 147.5C242.333 127.856 242.966 116.867 232 98C220.215 82.4836 213.311 74.0712 197.5 62.5Z" fill="#FE962D" stroke="#111111" stroke-width="10"/>
<path d="M202.579 60.2387C200.317 58.4889 162.079 44.4999 158.079 44C154.079 43.5001 191.215 17.7328 215.579 11.7387C246.177 3.76629 263.897 1.79513 298.579 11.7387C337.033 24.491 355.324 34.8751 381.079 60.2387C402.98 83.6549 411.494 99.0396 422.079 129.239C434.482 171.673 432.364 196.277 422.079 240.739C411.582 273.475 399.518 286.602 377.079 309.239C348.822 332.577 330.708 337.063 298.579 345.739C269.033 352.768 251.652 351.554 220.079 345.739C198.092 341.015 185.556 337.002 162.079 322.739C166.241 287.167 165.548 267.238 158.079 231.739C158.079 231.739 144.079 201.239 149.079 204.739C154.079 208.239 171.631 209.931 186.079 204.739C209.272 193.105 218.086 188.201 220.079 184.739C231.055 175.539 236.234 168.533 241.079 147.739C244.846 127.091 249.402 115.536 235.079 94.7387C220.756 73.9418 204.841 61.9885 202.579 60.2387Z" fill="#441B23" stroke="#111111" stroke-width="10"/>
<path d="M143 113.5C148.445 98.1918 152.994 92.5226 166.5 93C182.423 95.5086 186.7 100.794 182 120.5C178.011 140.379 172.777 145.922 158.5 145.5C143.487 138.566 138.206 132.735 143 113.5Z" fill="#080512"/>
<path d="M126.5 170.707C109.789 149.859 101.156 142.434 85.5 127.707C63.9571 124.716 51.9161 130.93 30.5 151.707C7.52764 181.082 4.99409 199.191 5.00001 232.207C7.59181 282.841 27.2357 299.367 75.5 320.207C106.403 332.153 155 327.207 155 327.207C155 327.207 162.363 276.296 155 239.707C148.74 213.312 145.215 198.511 126.5 170.707Z" fill="#FE962D" stroke="#111111" stroke-width="10"/>
<path d="M270.026 467.5C278.963 455.224 275.523 411.839 257.526 351C257.526 351 233.026 350.5 226.026 349C219.026 347.5 166.026 328 166.026 328L147.026 334C147.026 334 141.525 343.5 139.026 351C136.526 358.5 106.977 388.566 105.526 392.5C104.075 396.434 105.526 417.5 105.526 422C105.526 426.5 98.5256 435 99.0256 438.5C99.5256 442 149.526 482 154.026 482C158.526 482 162.526 479.5 166.026 478C169.526 476.5 219.026 482 219.026 482C243.985 485.656 261.088 479.776 270.026 467.5Z" fill="#441B23" stroke="#111111" stroke-width="10"/>
<path d="M162 270.5L5.5 221.5" stroke="#111111" stroke-width="10"/>
<path d="M56 146L43.5 140L30.5 160.5C35.7748 164.389 38.668 166.614 49.5 166.5C55.6069 166.707 58 164.5 60 160.5C62 156.5 59.923 149.834 56 146Z" fill="#111111"/>
<path d="M123.503 520.5C141.005 515 148.003 485.5 148.003 485.5L80.5026 422C72.0613 418.772 67.0703 418.078 57.0026 422C43.7239 429.253 41.5379 434.706 36.0026 444C32.4275 449.51 31.5018 468.5 52.0026 493.5C72.5033 518.5 106 526 123.503 520.5Z" fill="#FE962D" stroke="#111111" stroke-width="10"/>
<path d="M188.001 355.5C207.232 357.745 217 369 216.001 378C215.001 387 204.651 396.228 188.001 401.5C165.225 405.565 129.5 406 121.501 401.5C113.501 397 109.311 381.828 114.501 369C120.027 356.961 127.001 349 136.001 348.5C145 348 188.001 355.5 188.001 355.5Z" fill="#441B23" stroke="#111111" stroke-width="10"/>
<path d="M99.9997 330.5C116.247 335.209 120.8 340.529 131.5 348.5C110.676 363.696 109.123 376.539 113.5 402.5C88.6048 401.944 82.4261 396.575 77.4997 394C72.5733 391.425 57.6995 377.157 55.9997 368C53.4347 359.517 54.7448 353.86 60.9997 342.5C72.2372 330.336 80.512 327.194 99.9997 330.5Z" fill="#FE962D" stroke="#111111" stroke-width="10"/>
</svg>
