<svg width="72" height="105" viewBox="0 0 72 105" fill="none" xmlns="http://www.w3.org/2000/svg">
<ellipse cx="30.3065" cy="41.1879" rx="23.2164" ry="39.4853" fill="#DDC970"/>
<path fill-rule="evenodd" clip-rule="evenodd" d="M33.7209 0.0476402C24.144 0.724913 18.4103 3.52117 13.6978 9.81272C13.0431 10.6869 12.1223 12.1551 11.6516 13.0753C10.8193 14.7027 10.4053 15.334 10.1703 15.334C10.0052 15.334 9.66925 14.5463 9.64964 14.1131C9.60924 13.2207 9.36384 14.6316 9.34791 15.8491C9.33299 16.9721 9.27181 17.2065 8.81167 17.8998C8.20653 18.8117 7.08192 19.7992 5.28227 20.9993C4.02373 21.8383 3.99691 21.871 3.88309 22.6963C3.76742 23.5365 3.81956 24.3567 4.16001 27.0529C4.55628 30.191 3.32539 32.3464 0.794552 32.9464L0 33.1348L1.22921 34.346C1.91648 35.0231 2.45842 35.7 2.45842 35.8814C2.45842 36.4549 1.9661 37.6325 1.09427 39.1441C0.626589 39.9551 0.270714 40.6353 0.303569 40.6563C0.336256 40.677 0.736552 40.8428 1.19317 41.0247C1.75791 41.2495 2.12468 41.5288 2.34092 41.8982C2.82972 42.7334 2.75009 44.9662 2.12484 47.9595C1.21211 52.3297 1.10952 55.6794 1.72036 61.1771C2.20798 65.5658 2.85386 69.3244 4.07133 74.8592C4.63942 77.4423 4.65602 77.6041 4.39334 78.0042C4.06245 78.5084 3.27745 79.0137 2.42003 79.2745L1.79495 79.4648L2.88889 80.4651C4.91852 82.3214 5.07576 83.2965 3.53342 84.4588C2.54324 85.205 2.45808 85.3613 2.95594 85.5191C4.1647 85.9019 8.35924 89.8369 10.8844 92.9567C14.5722 97.5131 15.8948 98.8999 17.1848 99.5631C17.7273 99.842 17.7593 99.8404 18.1091 99.5123C18.6581 98.9974 19.6221 98.6545 20.5149 98.6563C21.6347 98.6585 22.7962 99.2533 24.0145 100.448C25.3176 101.726 26.5265 102.679 27.6426 103.307C29.17 104.167 29.2148 104.163 29.6861 103.099C29.9129 102.587 30.1637 102.168 30.2433 102.168C30.4673 102.168 30.8465 102.527 31.3515 103.215C31.9444 104.024 32.8801 104.493 34.4647 104.775C36.8293 105.196 42.4325 104.992 43.4899 104.446C43.7736 104.3 44.6383 103.332 45.4518 102.251C46.2519 101.188 47.0933 100.196 47.3214 100.047C47.8362 99.7099 48.6629 99.7192 49.047 100.066C49.4474 100.428 49.5314 100.397 49.5926 99.8695C49.6355 99.4985 50.1243 99.0486 52.16 97.506C56.358 94.3251 59.3824 91.7161 62.6476 88.4584C65.8487 85.2644 67.3207 83.5473 68.9515 81.1039C70.8278 78.2931 72.1541 74.7816 71.9856 73.071C71.9091 72.2937 71.4619 71.1948 69.7959 67.6891C69.2896 66.6239 68.6702 65.1934 68.4195 64.5102C67.5632 62.1771 67.8787 60.3589 69.5047 58.2553L70.1566 57.4119L69.8385 56.492C69.4526 55.3761 69.4169 53.5966 69.7429 51.724C70.1355 49.4687 70.2153 47.4827 70.0145 44.9622C69.8292 42.6354 69.8344 42.5342 70.1662 42.0866C70.4939 41.6441 70.4955 41.6181 70.2027 41.5253C69.8631 41.4177 69.5094 40.766 69.5094 40.2477C69.5094 39.6634 70.2501 39.0921 71.0077 39.0921H71.6832L71.3305 38.4166C71.1042 37.9835 70.9019 37.0984 70.7664 35.9488C70.304 32.0262 69.0062 28.2135 65.8233 21.4278C59.3458 7.61794 55.2228 3.5282 45.3444 1.11408C42.1895 0.343111 36.6848 -0.162 33.7209 0.0476402ZM38.3307 19.7675C42.4107 20.801 44.8072 22.6285 45.6297 25.3341C45.9541 26.4012 45.9356 26.807 45.5298 27.5277C45.0596 28.3628 44.2551 28.8712 42.687 29.3246C40.212 30.0401 38.0793 30.2246 32.2837 30.2246C26.2523 30.2246 24.6097 30.3563 21.4841 31.0898C17.4515 32.0364 15.2559 31.8997 13.9766 30.6228C13.3069 29.9544 13.0837 29.2348 13.2582 28.3069C13.3195 27.9806 14.2374 26.4104 15.3602 24.7117C16.4565 23.053 17.4016 21.5444 17.4604 21.3592C17.6208 20.8547 18.904 21.4428 19.5784 22.0965C19.4983 22.146 19.9086 22.4166 19.5784 22.0965C19.7644 21.9817 19.7666 20.9196 19.5822 20.2685C19.2852 19.2199 19.6964 19.1021 21.1858 19.8095C22.105 20.246 22.275 20.269 24.5014 20.2574C26.581 20.2465 29.7715 19.8211 31.9609 19.2626C32.0991 19.2273 33.1929 19.2261 34.3914 19.2601C36.0443 19.3069 36.9957 19.4294 38.3307 19.7675ZM30.3515 35.131C32.8179 36.258 34.9719 38.5282 36.9897 42.1274C37.3124 42.703 38.01 43.6391 38.5402 44.2078C39.6231 45.3692 39.7158 45.7561 39.1217 46.6359C38.29 47.8678 37.4096 47.6778 36.2407 46.014C35.4649 44.91 34.7746 44.4149 34.4551 44.7338C34.3415 44.8472 34.2681 45.3212 34.2848 45.8339C34.3244 47.0375 33.8944 47.6249 32.9747 47.6249H32.3363L32.2648 48.6132C32.1799 49.7846 31.7154 50.5619 30.7105 51.2141C29.4525 52.0304 28.4469 52.226 25.5072 52.226C23.1232 52.226 22.6875 52.1809 21.5871 51.8212C20.0637 51.3231 19.1816 50.5555 18.8802 49.4653C18.6549 48.6497 18.7872 46.8914 19.3774 42.8566C19.7619 40.2283 20.2296 39.2495 21.899 37.5789C24.571 34.9053 27.8067 33.9682 30.3515 35.131ZM15.2937 38.3244C16.8606 40.026 17.5528 42.1311 16.9885 43.4793C16.515 44.6103 15.4616 44.4952 14.0872 43.1617C12.9936 42.101 12.6091 41.1525 12.6041 39.5037C12.5985 37.736 12.9169 37.1667 13.8316 37.3074C14.2984 37.3793 14.6456 37.6207 15.2937 38.3244ZM29.7167 42.1333C28.1767 42.8626 27.7145 43.0048 26.6663 43.0719C25.2289 43.1639 24.742 42.9449 24.2922 42.0038C24.0411 41.4783 23.9521 41.4235 23.4202 41.4682C23.0347 41.5007 22.8101 41.6124 22.7767 41.7886C22.6934 42.2276 23.5061 43.0339 24.4557 43.4544C25.212 43.7893 25.6195 43.8469 27.2788 43.8531C29.1127 43.8601 29.2709 43.8332 30.1907 43.3585C30.8589 43.0137 31.2751 42.6626 31.5202 42.2375C32.1231 41.191 31.752 41.1696 29.7167 42.1333ZM28.9337 53.7267C29.4352 53.9856 29.7507 54.6585 29.6533 55.262C29.4982 56.223 28.0813 56.5779 25.3458 56.3408C23.9055 56.216 23.463 56.1158 23.2023 55.8556C22.5605 55.215 23.3911 54.2482 25.0043 53.7585C26.1122 53.4222 28.3094 53.4045 28.9337 53.7267Z" fill="#463011"/>
</svg>
