<svg width="10" height="10" viewBox="0 0 10 10" fill="none" xmlns="http://www.w3.org/2000/svg">
<path d="M2.9 0H7.1C8.7 0 10 1.2535 10 2.79628V6.84606C10 7.58768 9.69447 8.29892 9.15061 8.82333C8.60675 9.34773 7.86913 9.64234 7.1 9.64234H2.9C1.3 9.64234 0 8.38883 0 6.84606V2.79628C0 2.05466 0.305535 1.34341 0.84939 0.819011C1.39325 0.294607 2.13087 0 2.9 0ZM2.8 0.964234C2.32261 0.964234 1.86477 1.14709 1.52721 1.47259C1.18964 1.79808 1 2.23954 1 2.69985V6.94248C1 7.9019 1.805 8.6781 2.8 8.6781H7.2C7.67739 8.6781 8.13523 8.49524 8.47279 8.16975C8.81036 7.84426 9 7.4028 9 6.94248V2.69985C9 1.74044 8.195 0.964234 7.2 0.964234H2.8ZM7.625 1.68741C7.79076 1.68741 7.94973 1.7509 8.06694 1.86392C8.18415 1.97694 8.25 2.13022 8.25 2.29006C8.25 2.44989 8.18415 2.60317 8.06694 2.71619C7.94973 2.82921 7.79076 2.8927 7.625 2.8927C7.45924 2.8927 7.30027 2.82921 7.18306 2.71619C7.06585 2.60317 7 2.44989 7 2.29006C7 2.13022 7.06585 1.97694 7.18306 1.86392C7.30027 1.7509 7.45924 1.68741 7.625 1.68741ZM5 2.41058C5.66304 2.41058 6.29893 2.66456 6.76777 3.11663C7.23661 3.5687 7.5 4.18184 7.5 4.82117C7.5 5.4605 7.23661 6.07364 6.76777 6.52571C6.29893 6.97778 5.66304 7.23175 5 7.23175C4.33696 7.23175 3.70107 6.97778 3.23223 6.52571C2.76339 6.07364 2.5 5.4605 2.5 4.82117C2.5 4.18184 2.76339 3.5687 3.23223 3.11663C3.70107 2.66456 4.33696 2.41058 5 2.41058ZM5 3.37482C4.60218 3.37482 4.22064 3.5272 3.93934 3.79844C3.65804 4.06969 3.5 4.43757 3.5 4.82117C3.5 5.20476 3.65804 5.57265 3.93934 5.84389C4.22064 6.11514 4.60218 6.26752 5 6.26752C5.39782 6.26752 5.77936 6.11514 6.06066 5.84389C6.34196 5.57265 6.5 5.20476 6.5 4.82117C6.5 4.43757 6.34196 4.06969 6.06066 3.79844C5.77936 3.5272 5.39782 3.37482 5 3.37482Z" fill="white"/>
</svg>
