<svg width="11" height="9" viewBox="0 0 11 9" fill="none" xmlns="http://www.w3.org/2000/svg">
<path fill-rule="evenodd" clip-rule="evenodd" d="M5.5 0C5.97025 0 6.4526 0.0117768 6.9201 0.0310478L7.4723 0.0567425L8.00085 0.0872551L8.49585 0.119909L8.94795 0.154168C9.43865 0.190511 9.90044 0.394218 10.252 0.72941C10.6035 1.0646 10.8222 1.50978 10.8697 1.98652L10.8917 2.21403L10.9329 2.70116C10.9714 3.20595 11 3.75625 11 4.28246C11 4.80866 10.9714 5.35896 10.9329 5.86375L10.8917 6.35088L10.8697 6.57839C10.8222 7.05522 10.6034 7.50046 10.2518 7.83566C9.90012 8.17087 9.4382 8.37452 8.9474 8.41074L8.4964 8.44447L8.0014 8.47766L7.4723 8.50817L6.9201 8.53386C6.44701 8.55381 5.97354 8.56416 5.5 8.56491C5.02646 8.56416 4.55299 8.55381 4.0799 8.53386L3.5277 8.50817L2.99915 8.47766L2.50415 8.44447L2.05205 8.41074C1.56135 8.3744 1.09956 8.17069 0.748024 7.8355C0.396489 7.50031 0.177755 7.05513 0.13035 6.57839L0.10835 6.35088L0.0671 5.86375C0.025208 5.33761 0.0028268 4.81017 0 4.28246C0 3.75625 0.0286 3.20595 0.0671 2.70116L0.10835 2.21403L0.13035 1.98652C0.177737 1.50986 0.396391 1.06475 0.747815 0.729573C1.09924 0.394392 1.5609 0.190632 2.0515 0.154168L2.50305 0.119909L2.99805 0.0872551L3.52715 0.0567425L4.07935 0.0310478C4.55263 0.0110954 5.02628 0.000743852 5.5 0ZM4.4 2.98434V5.58057C4.4 5.82789 4.675 5.98205 4.895 5.85893L7.205 4.56082C7.25527 4.53265 7.29702 4.49209 7.32605 4.44323C7.35508 4.39436 7.37037 4.3389 7.37037 4.28246C7.37037 4.22601 7.35508 4.17055 7.32605 4.12168C7.29702 4.07282 7.25527 4.03226 7.205 4.0041L4.895 2.70651C4.84482 2.67831 4.78789 2.66347 4.72995 2.66348C4.672 2.66349 4.61508 2.67835 4.56491 2.70656C4.51474 2.73478 4.47308 2.77535 4.44413 2.82421C4.41518 2.87306 4.39996 2.92847 4.4 2.98487V2.98434Z" fill="white"/>
</svg>
